<mxfile host="app.diagrams.net" modified="2023-12-19T06:55:06.456Z" agent="Mozilla/5.0 (Macintosh; Intel Mac OS X 10_15_7) AppleWebKit/537.36 (KHTML, like Gecko) Chrome/120.0.0.0 Safari/537.36" etag="kWlu_MkgNrOsaQFObGme" version="22.1.11" type="github">
  <diagram name="第 1 页" id="tXnK3VPokYklSELAGCpk">
    <mxGraphModel dx="2694" dy="2219" grid="1" gridSize="10" guides="1" tooltips="1" connect="1" arrows="1" fold="1" page="1" pageScale="1" pageWidth="827" pageHeight="1169" background="#000000" math="0" shadow="0">
      <root>
        <mxCell id="0" />
        <mxCell id="1" parent="0" />
        <mxCell id="xeJN1JqJc7Vma9WERnQ--2" value="" style="whiteSpace=wrap;html=1;aspect=fixed;" vertex="1" parent="1">
          <mxGeometry x="30" y="-180" width="1570" height="1570" as="geometry" />
        </mxCell>
        <mxCell id="cooiixOqJ7cHR2co_wxt-1" value="" style="rounded=0;whiteSpace=wrap;html=1;labelBackgroundColor=none;fillColor=#B2C9AB;strokeColor=#788AA3;fontColor=#46495D;" parent="1" vertex="1">
          <mxGeometry x="110" y="190" width="440" height="290" as="geometry" />
        </mxCell>
        <mxCell id="cooiixOqJ7cHR2co_wxt-8" style="edgeStyle=orthogonalEdgeStyle;rounded=0;orthogonalLoop=1;jettySize=auto;html=1;exitX=0.5;exitY=0;exitDx=0;exitDy=0;exitPerimeter=0;labelBackgroundColor=none;strokeColor=#788AA3;fontColor=default;" parent="1" source="cooiixOqJ7cHR2co_wxt-2" target="cooiixOqJ7cHR2co_wxt-7" edge="1">
          <mxGeometry relative="1" as="geometry" />
        </mxCell>
        <mxCell id="cooiixOqJ7cHR2co_wxt-2" value="mysql" style="shape=cylinder3;whiteSpace=wrap;html=1;boundedLbl=1;backgroundOutline=1;size=15;labelBackgroundColor=none;fillColor=#B2C9AB;strokeColor=#788AA3;fontColor=#46495D;" parent="1" vertex="1">
          <mxGeometry x="130" y="370" width="60" height="80" as="geometry" />
        </mxCell>
        <mxCell id="cooiixOqJ7cHR2co_wxt-9" style="edgeStyle=orthogonalEdgeStyle;rounded=0;orthogonalLoop=1;jettySize=auto;html=1;exitX=0.5;exitY=0;exitDx=0;exitDy=0;exitPerimeter=0;entryX=0.5;entryY=1;entryDx=0;entryDy=0;labelBackgroundColor=none;strokeColor=#788AA3;fontColor=default;" parent="1" source="cooiixOqJ7cHR2co_wxt-4" target="cooiixOqJ7cHR2co_wxt-7" edge="1">
          <mxGeometry relative="1" as="geometry" />
        </mxCell>
        <mxCell id="cooiixOqJ7cHR2co_wxt-4" value="es" style="shape=cylinder3;whiteSpace=wrap;html=1;boundedLbl=1;backgroundOutline=1;size=15;labelBackgroundColor=none;fillColor=#B2C9AB;strokeColor=#788AA3;fontColor=#46495D;" parent="1" vertex="1">
          <mxGeometry x="210" y="370" width="60" height="80" as="geometry" />
        </mxCell>
        <mxCell id="cooiixOqJ7cHR2co_wxt-5" value="base_server" style="text;html=1;strokeColor=none;fillColor=none;align=center;verticalAlign=middle;whiteSpace=wrap;rounded=0;labelBackgroundColor=none;fontColor=#46495D;" parent="1" vertex="1">
          <mxGeometry x="110" y="160" width="60" height="30" as="geometry" />
        </mxCell>
        <mxCell id="cooiixOqJ7cHR2co_wxt-10" style="edgeStyle=orthogonalEdgeStyle;rounded=0;orthogonalLoop=1;jettySize=auto;html=1;exitX=0.5;exitY=0;exitDx=0;exitDy=0;entryX=0.224;entryY=1.08;entryDx=0;entryDy=0;entryPerimeter=0;labelBackgroundColor=none;strokeColor=#788AA3;fontColor=default;" parent="1" source="cooiixOqJ7cHR2co_wxt-7" edge="1">
          <mxGeometry relative="1" as="geometry">
            <mxPoint x="329.52" y="94" as="targetPoint" />
          </mxGeometry>
        </mxCell>
        <mxCell id="cooiixOqJ7cHR2co_wxt-7" value="frp" style="rounded=0;whiteSpace=wrap;html=1;labelBackgroundColor=none;fillColor=#B2C9AB;strokeColor=#788AA3;fontColor=#46495D;" parent="1" vertex="1">
          <mxGeometry x="150" y="210" width="360" height="60" as="geometry" />
        </mxCell>
        <mxCell id="cooiixOqJ7cHR2co_wxt-11" value="" style="rounded=0;whiteSpace=wrap;html=1;labelBackgroundColor=none;fillColor=#B2C9AB;strokeColor=#788AA3;fontColor=#46495D;" parent="1" vertex="1">
          <mxGeometry x="650" y="200" width="640" height="290" as="geometry" />
        </mxCell>
        <mxCell id="cooiixOqJ7cHR2co_wxt-16" value="frp" style="rounded=0;whiteSpace=wrap;html=1;labelBackgroundColor=none;fillColor=#B2C9AB;strokeColor=#788AA3;fontColor=#46495D;" parent="1" vertex="1">
          <mxGeometry x="830" y="215" width="250" height="50" as="geometry" />
        </mxCell>
        <mxCell id="cooiixOqJ7cHR2co_wxt-18" style="edgeStyle=orthogonalEdgeStyle;rounded=0;orthogonalLoop=1;jettySize=auto;html=1;exitX=0.5;exitY=0;exitDx=0;exitDy=0;exitPerimeter=0;labelBackgroundColor=none;strokeColor=#788AA3;fontColor=default;" parent="1" source="cooiixOqJ7cHR2co_wxt-17" edge="1">
          <mxGeometry relative="1" as="geometry">
            <mxPoint x="330" y="270" as="targetPoint" />
            <Array as="points">
              <mxPoint x="385" y="320" />
              <mxPoint x="331" y="320" />
            </Array>
          </mxGeometry>
        </mxCell>
        <mxCell id="cooiixOqJ7cHR2co_wxt-19" style="edgeStyle=orthogonalEdgeStyle;rounded=0;orthogonalLoop=1;jettySize=auto;html=1;exitX=0.5;exitY=0;exitDx=0;exitDy=0;labelBackgroundColor=none;strokeColor=#788AA3;fontColor=default;" parent="1" source="cooiixOqJ7cHR2co_wxt-16" edge="1">
          <mxGeometry relative="1" as="geometry">
            <mxPoint x="955" y="100" as="targetPoint" />
          </mxGeometry>
        </mxCell>
        <mxCell id="cooiixOqJ7cHR2co_wxt-34" style="edgeStyle=orthogonalEdgeStyle;rounded=0;orthogonalLoop=1;jettySize=auto;html=1;exitX=0.5;exitY=0;exitDx=0;exitDy=0;entryX=0.5;entryY=1;entryDx=0;entryDy=0;labelBackgroundColor=none;strokeColor=#788AA3;fontColor=default;" parent="1" source="cooiixOqJ7cHR2co_wxt-20" target="cooiixOqJ7cHR2co_wxt-16" edge="1">
          <mxGeometry relative="1" as="geometry" />
        </mxCell>
        <mxCell id="cooiixOqJ7cHR2co_wxt-20" value="pandora" style="rounded=0;whiteSpace=wrap;html=1;labelBackgroundColor=none;fillColor=#B2C9AB;strokeColor=#788AA3;fontColor=#46495D;" parent="1" vertex="1">
          <mxGeometry x="830" y="360" width="120" height="60" as="geometry" />
        </mxCell>
        <mxCell id="cooiixOqJ7cHR2co_wxt-35" style="edgeStyle=orthogonalEdgeStyle;rounded=0;orthogonalLoop=1;jettySize=auto;html=1;exitX=0.5;exitY=0;exitDx=0;exitDy=0;entryX=0.5;entryY=1;entryDx=0;entryDy=0;labelBackgroundColor=none;strokeColor=#788AA3;fontColor=default;" parent="1" source="cooiixOqJ7cHR2co_wxt-21" target="cooiixOqJ7cHR2co_wxt-16" edge="1">
          <mxGeometry relative="1" as="geometry" />
        </mxCell>
        <mxCell id="cooiixOqJ7cHR2co_wxt-21" value="pandora-web" style="rounded=0;whiteSpace=wrap;html=1;labelBackgroundColor=none;fillColor=#B2C9AB;strokeColor=#788AA3;fontColor=#46495D;" parent="1" vertex="1">
          <mxGeometry x="960" y="360" width="120" height="60" as="geometry" />
        </mxCell>
        <mxCell id="cooiixOqJ7cHR2co_wxt-24" value="server_server" style="text;html=1;strokeColor=none;fillColor=none;align=center;verticalAlign=middle;whiteSpace=wrap;rounded=0;labelBackgroundColor=none;fontColor=#46495D;" parent="1" vertex="1">
          <mxGeometry x="650" y="160" width="60" height="30" as="geometry" />
        </mxCell>
        <mxCell id="cooiixOqJ7cHR2co_wxt-25" value="" style="image;sketch=0;aspect=fixed;html=1;points=[];align=center;fontSize=12;image=img/lib/mscae/Docker.svg;labelBackgroundColor=none;fillColor=#B2C9AB;strokeColor=#788AA3;fontColor=#46495D;" parent="1" vertex="1">
          <mxGeometry x="660" y="310" width="50" height="41" as="geometry" />
        </mxCell>
        <mxCell id="cooiixOqJ7cHR2co_wxt-26" value="" style="image;sketch=0;aspect=fixed;html=1;points=[];align=center;fontSize=12;image=img/lib/mscae/Docker.svg;labelBackgroundColor=none;fillColor=#B2C9AB;strokeColor=#788AA3;fontColor=#46495D;" parent="1" vertex="1">
          <mxGeometry x="430" y="319" width="50" height="41" as="geometry" />
        </mxCell>
        <mxCell id="cooiixOqJ7cHR2co_wxt-29" style="edgeStyle=orthogonalEdgeStyle;rounded=0;orthogonalLoop=1;jettySize=auto;html=1;exitX=0.5;exitY=1;exitDx=0;exitDy=0;entryX=0.5;entryY=1;entryDx=0;entryDy=0;labelBackgroundColor=none;strokeColor=#788AA3;fontColor=default;" parent="1" source="cooiixOqJ7cHR2co_wxt-27" target="cooiixOqJ7cHR2co_wxt-20" edge="1">
          <mxGeometry relative="1" as="geometry" />
        </mxCell>
        <mxCell id="cooiixOqJ7cHR2co_wxt-30" style="edgeStyle=orthogonalEdgeStyle;rounded=0;orthogonalLoop=1;jettySize=auto;html=1;exitX=0.5;exitY=1;exitDx=0;exitDy=0;entryX=0.5;entryY=1;entryDx=0;entryDy=0;labelBackgroundColor=none;strokeColor=#788AA3;fontColor=default;" parent="1" source="cooiixOqJ7cHR2co_wxt-27" target="cooiixOqJ7cHR2co_wxt-21" edge="1">
          <mxGeometry relative="1" as="geometry" />
        </mxCell>
        <mxCell id="cooiixOqJ7cHR2co_wxt-31" value="ci/cd" style="edgeLabel;html=1;align=center;verticalAlign=middle;resizable=0;points=[];labelBackgroundColor=none;fontColor=#46495D;" parent="cooiixOqJ7cHR2co_wxt-30" vertex="1" connectable="0">
          <mxGeometry x="-0.4235" y="-2" relative="1" as="geometry">
            <mxPoint as="offset" />
          </mxGeometry>
        </mxCell>
        <mxCell id="cooiixOqJ7cHR2co_wxt-27" value="gitlab-ci" style="rounded=0;whiteSpace=wrap;html=1;labelBackgroundColor=none;fillColor=#B2C9AB;strokeColor=#788AA3;fontColor=#46495D;" parent="1" vertex="1">
          <mxGeometry x="660" y="360" width="120" height="60" as="geometry" />
        </mxCell>
        <mxCell id="cooiixOqJ7cHR2co_wxt-36" value="gitlab" style="text;html=1;strokeColor=none;fillColor=none;align=center;verticalAlign=middle;whiteSpace=wrap;rounded=0;labelBackgroundColor=none;fontColor=#46495D;" parent="1" vertex="1">
          <mxGeometry x="350" y="435" width="60" height="30" as="geometry" />
        </mxCell>
        <mxCell id="cooiixOqJ7cHR2co_wxt-37" value="jim.sale" style="rounded=0;whiteSpace=wrap;html=1;labelBackgroundColor=none;fillColor=#B2C9AB;strokeColor=#788AA3;fontColor=#46495D;" parent="1" vertex="1">
          <mxGeometry x="270" y="30" width="120" height="60" as="geometry" />
        </mxCell>
        <mxCell id="cooiixOqJ7cHR2co_wxt-38" value="pduola.com" style="rounded=0;whiteSpace=wrap;html=1;labelBackgroundColor=none;fillColor=#B2C9AB;strokeColor=#788AA3;fontColor=#46495D;" parent="1" vertex="1">
          <mxGeometry x="895" y="40" width="120" height="60" as="geometry" />
        </mxCell>
        <mxCell id="cooiixOqJ7cHR2co_wxt-39" value="" style="rounded=0;whiteSpace=wrap;html=1;labelBackgroundColor=none;fillColor=#B2C9AB;strokeColor=#788AA3;fontColor=#46495D;" parent="1" vertex="1">
          <mxGeometry x="490" y="610" width="440" height="290" as="geometry" />
        </mxCell>
        <mxCell id="cooiixOqJ7cHR2co_wxt-41" value="1" style="shape=cylinder3;whiteSpace=wrap;html=1;boundedLbl=1;backgroundOutline=1;size=15;labelBackgroundColor=none;fillColor=#B2C9AB;strokeColor=#788AA3;fontColor=#46495D;" parent="1" vertex="1">
          <mxGeometry x="510" y="780" width="60" height="80" as="geometry" />
        </mxCell>
        <mxCell id="cooiixOqJ7cHR2co_wxt-43" value="30" style="shape=cylinder3;whiteSpace=wrap;html=1;boundedLbl=1;backgroundOutline=1;size=15;labelBackgroundColor=none;fillColor=#B2C9AB;strokeColor=#788AA3;fontColor=#46495D;" parent="1" vertex="1">
          <mxGeometry x="820" y="780" width="60" height="80" as="geometry" />
        </mxCell>
        <mxCell id="cooiixOqJ7cHR2co_wxt-49" value="weed-master" style="rounded=0;whiteSpace=wrap;html=1;labelBackgroundColor=none;fillColor=#B2C9AB;strokeColor=#788AA3;fontColor=#46495D;" parent="1" vertex="1">
          <mxGeometry x="1150" y="360" width="120" height="60" as="geometry" />
        </mxCell>
        <mxCell id="cooiixOqJ7cHR2co_wxt-50" value="..." style="shape=cylinder3;whiteSpace=wrap;html=1;boundedLbl=1;backgroundOutline=1;size=15;labelBackgroundColor=none;fillColor=#B2C9AB;strokeColor=#788AA3;fontColor=#46495D;" parent="1" vertex="1">
          <mxGeometry x="670" y="780" width="60" height="80" as="geometry" />
        </mxCell>
        <mxCell id="cooiixOqJ7cHR2co_wxt-57" style="edgeStyle=orthogonalEdgeStyle;rounded=0;orthogonalLoop=1;jettySize=auto;html=1;exitX=0.5;exitY=0;exitDx=0;exitDy=0;entryX=0.5;entryY=1;entryDx=0;entryDy=0;labelBackgroundColor=none;strokeColor=#788AA3;fontColor=default;" parent="1" source="cooiixOqJ7cHR2co_wxt-51" target="cooiixOqJ7cHR2co_wxt-49" edge="1">
          <mxGeometry relative="1" as="geometry" />
        </mxCell>
        <mxCell id="cooiixOqJ7cHR2co_wxt-51" value="weed-vulome" style="rounded=0;whiteSpace=wrap;html=1;labelBackgroundColor=none;fillColor=#B2C9AB;strokeColor=#788AA3;fontColor=#46495D;" parent="1" vertex="1">
          <mxGeometry x="650" y="660" width="120" height="60" as="geometry" />
        </mxCell>
        <mxCell id="cooiixOqJ7cHR2co_wxt-52" value="" style="rounded=0;whiteSpace=wrap;html=1;labelBackgroundColor=none;fillColor=#B2C9AB;strokeColor=#788AA3;fontColor=#46495D;" parent="1" vertex="1">
          <mxGeometry x="1040" y="600" width="440" height="290" as="geometry" />
        </mxCell>
        <mxCell id="cooiixOqJ7cHR2co_wxt-53" value="1" style="shape=cylinder3;whiteSpace=wrap;html=1;boundedLbl=1;backgroundOutline=1;size=15;labelBackgroundColor=none;fillColor=#B2C9AB;strokeColor=#788AA3;fontColor=#46495D;" parent="1" vertex="1">
          <mxGeometry x="1070" y="780" width="60" height="80" as="geometry" />
        </mxCell>
        <mxCell id="cooiixOqJ7cHR2co_wxt-54" value="30" style="shape=cylinder3;whiteSpace=wrap;html=1;boundedLbl=1;backgroundOutline=1;size=15;labelBackgroundColor=none;fillColor=#B2C9AB;strokeColor=#788AA3;fontColor=#46495D;" parent="1" vertex="1">
          <mxGeometry x="1380" y="780" width="60" height="80" as="geometry" />
        </mxCell>
        <mxCell id="cooiixOqJ7cHR2co_wxt-55" value="..." style="shape=cylinder3;whiteSpace=wrap;html=1;boundedLbl=1;backgroundOutline=1;size=15;labelBackgroundColor=none;fillColor=#B2C9AB;strokeColor=#788AA3;fontColor=#46495D;" parent="1" vertex="1">
          <mxGeometry x="1230" y="780" width="60" height="80" as="geometry" />
        </mxCell>
        <mxCell id="cooiixOqJ7cHR2co_wxt-58" style="edgeStyle=orthogonalEdgeStyle;rounded=0;orthogonalLoop=1;jettySize=auto;html=1;exitX=0.5;exitY=0;exitDx=0;exitDy=0;labelBackgroundColor=none;strokeColor=#788AA3;fontColor=default;" parent="1" source="cooiixOqJ7cHR2co_wxt-56" edge="1">
          <mxGeometry relative="1" as="geometry">
            <mxPoint x="1210" y="419.9999999999998" as="targetPoint" />
          </mxGeometry>
        </mxCell>
        <mxCell id="cooiixOqJ7cHR2co_wxt-56" value="weed-vulome" style="rounded=0;whiteSpace=wrap;html=1;labelBackgroundColor=none;fillColor=#B2C9AB;strokeColor=#788AA3;fontColor=#46495D;" parent="1" vertex="1">
          <mxGeometry x="1210" y="660" width="120" height="60" as="geometry" />
        </mxCell>
        <mxCell id="cooiixOqJ7cHR2co_wxt-59" value="storage1_server" style="text;html=1;strokeColor=none;fillColor=none;align=center;verticalAlign=middle;whiteSpace=wrap;rounded=0;labelBackgroundColor=none;fontColor=#46495D;" parent="1" vertex="1">
          <mxGeometry x="490" y="560" width="60" height="30" as="geometry" />
        </mxCell>
        <mxCell id="cooiixOqJ7cHR2co_wxt-60" value="storage2_server" style="text;html=1;strokeColor=none;fillColor=none;align=center;verticalAlign=middle;whiteSpace=wrap;rounded=0;labelBackgroundColor=none;fontColor=#46495D;" parent="1" vertex="1">
          <mxGeometry x="1050" y="560" width="60" height="30" as="geometry" />
        </mxCell>
        <mxCell id="cooiixOqJ7cHR2co_wxt-17" value="" style="verticalLabelPosition=bottom;html=1;verticalAlign=top;align=center;strokeColor=none;fillColor=#e9ede8;shape=mxgraph.azure.git_repository;labelBackgroundColor=none;fontColor=#46495D;" parent="1" vertex="1">
          <mxGeometry x="360" y="385" width="50" height="50" as="geometry" />
        </mxCell>
      </root>
    </mxGraphModel>
  </diagram>
</mxfile>
